<?xml version="1.0" encoding="utf-8"?>
<!-- Generator: Adobe Illustrator 22.0.1, SVG Export Plug-In . SVG Version: 6.00 Build 0)  -->
<svg version="1.1" id="Слой_1" xmlns="http://www.w3.org/2000/svg" xmlns:xlink="http://www.w3.org/1999/xlink" x="0px" y="0px"
	 viewBox="0 0 256 256" style="enable-background:new 0 0 256 256;" xml:space="preserve">
<style type="text/css">
	.st0{fill:#7CB342;}
	.st1{fill:#0277BD;}
	.st2{fill:#488E43;}
	.st3{opacity:0.17;}
</style>
<g id="expired">
	<g id="globe">
		<path class="st0" d="M216.8,123.5c0,57.9-47.4,105.2-105.2,105.2S6.3,181.4,6.3,123.5S53.7,18.3,111.6,18.3
			S216.8,65.6,216.8,123.5z"/>
		<path class="st1" d="M112.5,13C50.9,13,2,61.9,2,123.5S52,234,112.5,234S223,185.1,223,123.5S174.1,13,112.5,13z M110.9,184.5
			c-1.1,3.2-2.1,7.9-4.2,10c-2.6,2.1-4.7,3.2-6.8,4.2c-3.2,2.1-5.8,6.8-8.9,10c0,1.1-4.2,7.9-5.3,7.9c-7.9-2.1-13.2-5.8-20-8.9
			c0-1.1-1.1-7.9-1.1-8.9c-1.1-3.2-2.1-7.9-3.2-11c-2.6-5.8-6.8-11.1-6.8-17.9c0-5.3,1.1-11.1-2.1-15.3c-4.7-5.8-13.7-5.8-17.9-8.9
			c-6.8-4.7-13.7-11.1-16.8-17.9c-3.2-5.3-2.1-10-1.1-15.3c1.1-7.9,3.2-16.3,5.3-23.2c4.7-11,11.6-24.2,20-32.1s26.3-12.1,37.4-8.9
			c3.2,1.6,6.8,3.7,8.9,5.8c2.1,2.1,5.3,5.8,5.3,8.9c0,1.1,0,1.1-1.1,2.1c-1.1,1.1-2.1,1.1-3.2,1.1c-3.2,0-6.8,0-8.9-1.1l-4.2-4.2
			C69.4,58.3,59.4,73,58.3,77.2c-1.6,3.2-1.6,11,4.2,12.1c3.2,0,10-6.8,13.2-8.9c2.1-1.1,3.2-2.1,5.3-3.2
			c8.9-1.1,15.8,6.3,17.9,14.2c3.2,8.9-13.2,15.8-20,17.9c-2.6,1.1-3.7-1.1-5.8,0c-5.3,2.1-12.1,8.4-12.1,15.3
			c-1.1,5.8-1.1,11.1-2.1,16.8c-1.1,0-2.1,0-2.1-1.1v-2.1c0-3.7-1.1-7.9-4.2-8.9c-1.1-1.1-1.1-1.1-2.1-1.1c-3.2,0-6.8-3.2-10-1.1
			c-2.1,2.1-4.2,5.8-4.2,8.9c0,1.1,0,2.1,1.1,3.2c2.6,1.1,4.7-1.1,6.8,0c2.1,0,2.1,2.1,2.1,3.2c2.1,3.2,4.7,7.9,7.9,8.9h22.1
			c3.2,1.1,8.9,2.1,11.1,4.2c1.1,2.6,1.1,4.7,2.1,6.8c5.8,5.8,12.1,5.8,18.9,7.9c2.1,1.1,3.2,2.1,3.2,4.2
			C112.5,177.7,111.4,181.9,110.9,184.5z M112.5,72.5c-2.1-2.1-2.1-7.9-2.1-11c0-5.3,3.2-8.9,2.1-14.2c0-1.1-1.1-10-1.1-10
			c-4.7-1.6-8.9,0-7.9-5.8c1.1-3.2,5.8-4.2,8.9-4.2c8.9,0,16.3,1.1,25.3,3.2c2.1,1.1,7.9,2.1,8.9,4.2c1.1,3.2-2.1,7.9-3.2,10
			c-1.1,3.2-3.7,7.9-6.8,10c-2.1,2.1-5.8,5.8-8.9,7.9c-3.2,2.1-6.8,5.8-10,7.9c-2.1,1.1-3.2,2.1-4.2,2.1
			C113.6,72.5,112.5,72.5,112.5,72.5z M192,174.5c-6.3,11.1-15.3,19.5-25.3,27.4c-1.1-4.2-3.2-10-4.2-15.3
			c-2.1-4.2-3.2-8.9-4.2-13.2c-1.1-3.2-1.1-8.9-4.2-12.1c-1.6-2.1-3.7-2.1-5.8-3.2c-7.9-3.7-17.9,1.1-23.2-6.8
			c-2.1-3.2-1.1-6.8-1.1-11.1c2.1-3.2,3.2-6.8,5.3-10c2.6-5.3,5.8-9.5,6.8-15.3c1.1-2.1,0-5.8,1.1-7.9c1.6-1.1,3.7-2.1,5.8-3.2
			c1.1-1.1,2.1-1.1,2.1-2.1s-1.1-1.1-1.1-2.1c0-1.1,1.1-3.2,2.1-4.2c5.3-5.3,11.1-9.5,16.3-15.3c1.1,0,1.1-1.1,1.1-1.1
			c1.1-1.1,0-2.1-1.1-2.1c-2.1-1.1-3.2-1.1-5.3-2.1c-1.1,0-2.1,0-2.1-1.1c-1.1-1.1,0-3.2,1.1-4.2c2.6-3.2,4.7-6.8,6.8-10
			c2.6-2.6,4.7-6.8,7.9-7.9c10-4.7,15.8,10.5,20,16.3c4.7,4.2,7.9,9.5,10,15.3c1.1,3.2,2.1,6.8,4.2,10c3.2,10,4.2,21,4.2,32.1
			c0,5.3,0,11-1.1,16.3c-1.1,2.1-1.1,5.8-2.1,7.9C203,158.8,199.8,167.7,192,174.5z"/>
	</g>
	<g id="right">
		<g>
			<path class="st2" d="M197.7,144v97.2l58.2-48.6"/>
			<path class="st2" d="M98,209.2h112.2V176H98V209.2z"/>
		</g>
		<g class="st3">
			<path d="M197.2,146.2v96.7l57.9-48.4"/>
			<path d="M98,211.1h111.6V178H98V211.1z"/>
		</g>
	</g>
</g>
</svg>
