<?xml version="1.0" encoding="utf-8"?>
<!-- Generator: Adobe Illustrator 22.0.1, SVG Export Plug-In . SVG Version: 6.00 Build 0)  -->
<svg version="1.1" id="Слой_1" xmlns="http://www.w3.org/2000/svg" xmlns:xlink="http://www.w3.org/1999/xlink" x="0px" y="0px"
	 viewBox="0 0 256 256" style="enable-background:new 0 0 256 256;" xml:space="preserve">
<style type="text/css">
	.st0{fill:#FFC107;}
	.st1{fill:#263238;}
</style>
<g id="expired">
	<g>
		<g>
			<path class="st0" d="M15.8,235h224.8c11.7,0,19.5-13.3,13.3-23.4L141.5,23.5c-5.5-10.1-20.3-10.1-26.5,0L2.5,211.6
				C-3.7,221.7,4.1,235,15.8,235z"/>
		</g>
		<path class="st1" d="M116.5,199.9c0.8,1.6,1.6,3.1,2.3,3.9c0.8,0.8,3.1,1.6,3.9,2.3c0.8,0.8,2.3,0.8,4.7,0.8c2.3,0,3.9,0,5.5-0.8
			c1.6-0.8,3.1-0.8,3.9-2.3c0.8-1.6,1.6-2.3,2.3-3.9c0.8-1.6,0.8-3.1,0.8-4.7c0-1.6,0-3.1-0.8-4.7c-0.8-1.6-1.6-3.1-2.3-3.9
			c-0.8-0.8-2.3-1.6-3.9-2.3c-1.6-0.8-3.9-0.8-5.5-0.8s-3.1,0-4.7,0.8c-1.6,0.8-3.1,0.8-3.9,2.3c-0.8,1.6-1.6,2.3-2.3,3.9
			c-0.8,1.6-0.8,3.1-0.8,4.7C115.7,196.8,115.7,198.3,116.5,199.9z M139.9,94.5h-23.4l3.1,76.5h18C137.6,171,139.9,94.5,139.9,94.5z
			"/>
	</g>
</g>
</svg>
